<svg width="109" height="128" viewBox="0 0 109 128" fill="none" xmlns="http://www.w3.org/2000/svg">
<g clip-path="url(#clip0_138_28)">
<path d="M63.5833 89.5H99.9166V100.5H63.5833V89.5ZM22.7083 106V62H9.08331L54.5 12.5L99.9166 62H77.2083V52.045L54.5 27.295L31.7916 52.045V95H54.5C54.5 98.85 55.045 102.535 56.0441 106H22.7083Z" fill="#9747FF"/>
<path d="M49.2092 87.72C49.2092 87.93 48.0192 88.035 45.6392 88.035C43.7725 88.0117 42.8392 87.9183 42.8392 87.755V63.92C42.8392 63.57 43.9708 63.395 46.2342 63.395C48.2175 63.465 49.2092 63.5817 49.2092 63.745V87.72ZM53.8803 85.935C52.4336 84.325 51.7103 82.0967 51.7103 79.25C51.7103 76.4033 52.4336 74.175 53.8803 72.565C55.3503 70.955 57.322 70.15 59.7953 70.15C62.2686 70.15 64.2286 70.955 65.6753 72.565C67.122 74.175 67.8453 76.4033 67.8453 79.25C67.8453 82.0967 67.122 84.325 65.6753 85.935C64.2286 87.545 62.2686 88.35 59.7953 88.35C57.322 88.35 55.3503 87.545 53.8803 85.935ZM59.7953 75.995C58.4886 75.995 57.8353 77.0683 57.8353 79.215C57.8353 81.3617 58.4886 82.435 59.7953 82.435C61.1253 82.435 61.7903 81.3617 61.7903 79.215C61.7903 77.0683 61.1253 75.995 59.7953 75.995ZM76.7596 88C74.4963 88 72.7463 87.2767 71.5096 85.83C70.273 84.36 69.6546 82.2017 69.6546 79.355C69.6546 76.485 70.4596 74.245 72.0696 72.635C73.703 71.0017 75.8613 70.185 78.5446 70.185C81.2513 70.185 83.4796 70.78 85.2296 71.97V89.4C85.2296 91.1267 84.5296 92.445 83.1296 93.355C81.7296 94.2883 79.933 94.755 77.7396 94.755C75.5463 94.755 73.5863 94.475 71.8596 93.915C71.6263 93.355 71.5096 92.8533 71.5096 92.41C71.5096 90.9167 71.7546 89.82 72.2446 89.12C73.808 89.7967 75.4763 90.135 77.2496 90.135C78.533 90.135 79.1746 89.68 79.1746 88.77V87.72C78.1713 87.9067 77.3663 88 76.7596 88ZM78.3696 75.89C76.8063 75.89 76.0246 77.0683 76.0246 79.425C76.0246 80.895 76.328 81.8517 76.9346 82.295C77.3313 82.5983 77.728 82.75 78.1246 82.75C78.5213 82.75 78.8713 82.715 79.1746 82.645V75.995C78.8946 75.925 78.6263 75.89 78.3696 75.89ZM89.8715 85.935C88.4248 84.325 87.7015 82.0967 87.7015 79.25C87.7015 76.4033 88.4248 74.175 89.8715 72.565C91.3415 70.955 93.3132 70.15 95.7865 70.15C98.2598 70.15 100.22 70.955 101.667 72.565C103.113 74.175 103.837 76.4033 103.837 79.25C103.837 82.0967 103.113 84.325 101.667 85.935C100.22 87.545 98.2598 88.35 95.7865 88.35C93.3132 88.35 91.3415 87.545 89.8715 85.935ZM95.7865 75.995C94.4798 75.995 93.8265 77.0683 93.8265 79.215C93.8265 81.3617 94.4798 82.435 95.7865 82.435C97.1165 82.435 97.7815 81.3617 97.7815 79.215C97.7815 77.0683 97.1165 75.995 95.7865 75.995Z" fill="#4C48FF"/>
</g>
<defs>
<clipPath id="clip0_138_28">
<rect width="109" height="132" fill="white" transform="translate(0 -4)"/>
</clipPath>
</defs>
</svg>
